<svg xmlns="http://www.w3.org/2000/svg" xmlns:xlink="http://www.w3.org/1999/xlink" viewBox="0 0 226.45 193.51"><defs><style>.cls-1{fill:none;}.cls-2{clip-path:url(#clip-path);}.cls-3{fill:#fff;}</style><clipPath id="clip-path" transform="translate(0 0)"><rect class="cls-1" width="226.45" height="193.51"/></clipPath></defs><g id="Layer_2" data-name="Layer 2"><g id="Layer_1-2" data-name="Layer 1"><g id="Artwork_1" data-name="Artwork 1"><g class="cls-2"><g class="cls-2"><path class="cls-3" d="M62.2,193.51H20V44.81L62.2,110.39Z" transform="translate(0 0)"/><path class="cls-3" d="M162.06,156.49c-1.3-.81-33.47-74.35-35.24-89.81-3.38-29.35-7-58.67-7-58.89h42.21Z" transform="translate(0 0)"/><path class="cls-3" d="M136.74,187.19c-9.21-5.16-14.15-12.92-20.13-24-12.12-22.5-17.91-38.93-25.34-56.88-8.7-21-13-31.55-19.47-41.83C62.28,49.21,48,27.55,22.45,20.31A65,65,0,0,0,0,18.08C9,20.22,22.82,25,34.79,36.54a69.54,69.54,0,0,1,9.39,11.34c14,20.52,23,41.91,32.82,64,0,0,10.77,24.14,28.57,54.54,4.31,7.36,7.88,13.25,14.93,18.18,18.07,12.65,41.54,8.29,41.56,7.8s-12.7,1.87-25.32-5.2" transform="translate(0 0)"/><path class="cls-3" d="M226.37,147.1c1,.7-6.65,26-30.81,35.56-2.26.88-17.75,6.72-35,.59-12.4-4.42-19.36-12.79-28.44-23.71a144.1,144.1,0,0,1-17.78-27.26C98.79,102.18,83.16,66,67,36.88A65,65,0,0,0,51,17.32,52.45,52.45,0,0,0,26.07,5.47C13.72,3.38,4.25,7.13,4.15,6.65S18.94-1.06,35,.14C41.8.65,59.3,3.88,86.52,38.65c6.34,8.11,14.47,19.54,42.66,74.67,18.27,35.72,25.36,51.44,42.67,56.89,14,4.41,27.34-.2,28.45-.59,17.8-6.39,25.25-23.12,26.07-22.52" transform="translate(0 0)"/></g></g></g></g></g></svg>